<svg
    viewBox="0 0 17 17"
    fill="none"
    xmlns="http://www.w3.org/2000/svg"
    class="size-6"
>
    <path
        d="M12.25 1H4.75C2.67893 1 1 2.67893 1 4.75V12.25C1 14.3211 2.67893 16 4.75 16H12.25C14.3211 16 16 14.3211 16 12.25V4.75C16 2.67893 14.3211 1 12.25 1Z"
        stroke="white"
        stroke-linecap="round"
        stroke-linejoin="round"></path>
    <path
        d="M11.5003 8.02736C11.5928 8.65154 11.4862 9.28902 11.1956 9.84912C10.905 10.4092 10.4451 10.8634 9.88149 11.1471C9.31785 11.4308 8.6791 11.5296 8.05611 11.4293C7.43311 11.3291 6.85759 11.0349 6.4114 10.5887C5.96521 10.1425 5.67107 9.56702 5.57082 8.94402C5.47057 8.32102 5.56932 7.68228 5.85301 7.11864C6.13671 6.555 6.59091 6.09517 7.15101 5.80454C7.71111 5.51392 8.34858 5.4073 8.97277 5.49986C9.60946 5.59427 10.1989 5.89096 10.654 6.34609C11.1092 6.80122 11.4059 7.39067 11.5003 8.02736Z"
        stroke="white"
        stroke-linecap="round"
        stroke-linejoin="round"></path>
    <path
        d="M12.625 4.37476H12.6337"
        stroke="white"
        stroke-linecap="round"
        stroke-linejoin="round"></path>
</svg>
